<?xml version="1.0" standalone="no"?>
<!DOCTYPE svg PUBLIC "-//W3C//DTD SVG 1.1//EN" "http://www.w3.org/Graphics/SVG/1.1/DTD/svg11.dtd" >
<svg xmlns="http://www.w3.org/2000/svg">
<metadata>
This is a custom SVG webfont generated by Font Squirrel.
Copyright   : reporg  20022004 
</metadata>
<defs>
<font id="webfontYTvxeyyS" horiz-adv-x="1032" >
<font-face units-per-em="2048" ascent="1638" descent="-410" />
<missing-glyph horiz-adv-x="466" />
<glyph unicode=" "  horiz-adv-x="466" />
<glyph unicode="&#x09;" horiz-adv-x="466" />
<glyph unicode="&#xa0;" horiz-adv-x="466" />
<glyph unicode="!" horiz-adv-x="417" d="M123 0v160h160v-160h-160zM150 346v881h110v-881h-110z" />
<glyph unicode="&#x22;" horiz-adv-x="759" d="M109 946l14 139v256h106v-282l-12 -113h-108zM403 946l15 139v256h106v-282l-12 -113h-109z" />
<glyph unicode="#" horiz-adv-x="1073" d="M10 381l19 106h180l41 234h-180l18 106h180l37 211h109l-37 -211h196l37 211h109l-37 -211h180l-18 -106h-180l-41 -234h180l-19 -106h-180l-39 -219h-108l39 219h-197l-39 -219h-108l38 219h-180zM317 487h197l41 234h-197z" />
<glyph unicode="$" horiz-adv-x="1122" d="M18 231l117 33l15 -24q20 -37 59 -76t65 -53q8 -6 29 -7h105v469l-250 68q-57 16 -92 70.5t-35 122.5v127q0 61 24 100q18 27 66.5 77t75.5 66q51 33 104 33h107v174h104v-174h98q53 0 105 -33q59 -37 127 -129q33 -47 47 -80l-119 -34l-14 26q-18 35 -58.5 75t-66.5 54 q-8 6 -27 6h-92v-456l264 -72q59 -16 95 -70.5t36 -120.5v-139q0 -61 -24 -100q-18 -27 -66.5 -76t-75.5 -65q-51 -33 -104 -33h-125v-183h-104v183h-111q-55 0 -107 33q-59 37 -127 129q-29 38 -45 79zM150 842q0 -31 18 -57.5t45 -34.5l195 -56v428h-97q-16 0 -26 -6 q-27 -12 -68 -53t-59 -76q-8 -16 -8 -26v-119zM512 104h117q14 0 24 7q27 12 69 53t60 76q6 12 6 26v125q0 33 -18 60.5t-47 35.5l-211 58v-441z" />
<glyph unicode="%" horiz-adv-x="1378" d="M61 856v152q0 55 27 96q43 61 92 98q45 35 111 35h43q68 0 112 -35q49 -37 93 -98q27 -41 26 -96v-152q0 -55 -26 -96q-37 -53 -93 -94q-41 -33 -112 -33h-43q-70 0 -111 33q-55 41 -92 94q-27 41 -27 96zM158 854q0 -16 6 -29q29 -53 96 -92q12 -6 33 -6h41q20 0 33 6 q68 39 96 92q4 8 4 29v158q0 23 -4 30q-29 53 -96 93q-12 6 -33 6h-41q-20 0 -33 -6q-68 -39 -96 -93q-6 -12 -6 -30v-158zM225 0l649 1237h125l-647 -1237h-127zM668 227v150q0 51 28 96q43 59 90 96q45 35 113 35h43q66 0 111 -35q51 -39 92 -96q27 -41 26 -96v-150 q0 -55 -26 -96q-41 -57 -92 -96q-45 -35 -111 -35h-43q-68 0 -113 35q-47 37 -90 96q-28 45 -28 96zM766 223q0 -23 4 -30q12 -23 43 -50.5t55 -42.5q12 -6 33 -6h39q16 0 33 8q25 14 54.5 42t41.5 49q6 12 6 30v156q0 18 -6 31q-29 53 -96 92q-16 8 -33 8h-39q-16 0 -33 -8 q-25 -14 -55.5 -42t-42.5 -50q-4 -8 -4 -31v-156z" />
<glyph unicode="&#x26;" horiz-adv-x="1157" d="M14 244v184q0 59 31 107q20 31 80 86q-59 55 -80 86q-31 47 -31 108v166q0 63 31 109q10 16 46 53t56 53q55 41 121 41h152q55 0 106 -33q55 -35 127 -131q29 -39 45 -80l-116 -32q-18 41 -61.5 88t-76.5 65q-10 6 -30 6h-144q-18 0 -32 -8q-63 -37 -99 -100 q-6 -12 -6 -35v-158q0 -23 6 -35q35 -63 99 -100q14 -8 32 -8l219 2v-115h-219q-18 0 -32 -8q-66 -37 -99 -98q-6 -12 -6 -33v-176q0 -20 6 -33q33 -61 99 -98q14 -8 32 -8h287q20 0 35 8q66 37 98 98q6 12 6 33v297h181v-121h-62v-180q0 -59 -31 -105q-10 -16 -46 -55 t-56 -53q-51 -39 -125 -39h-289q-70 0 -121 39q-20 14 -56 53t-46 55q-31 46 -31 105z" />
<glyph unicode="'" horiz-adv-x="464" d="M109 946l14 139v256h106v-282l-12 -113h-108z" />
<glyph unicode="(" horiz-adv-x="700" d="M41 274v691q0 57 27 98q33 47 82 96l178 176l80 -84l-172 -170q-51 -47 -72 -84q-6 -12 -6 -36v-682q0 -20 6 -33q27 -45 72 -88l172 -168l-80 -84l-178 176q-53 53 -82 94q-27 41 -27 98z" />
<glyph unicode=")" horiz-adv-x="700" d="M127 -10l172 168q45 43 72 88q6 12 6 33v682q0 25 -6 36q-20 37 -72 84l-172 170l80 84l178 -176q49 -49 82 -96q27 -41 27 -98v-691q0 -57 -27 -98q-29 -41 -82 -94l-178 -176z" />
<glyph unicode="*" horiz-adv-x="946" d="M27 729l204 209v37l-204 213l96 29l215 -218v267h90v-267l217 218l96 -29l-206 -213v-37l206 -209l-96 -31l-217 228v-275h-90v275l-215 -228z" />
<glyph unicode="+" horiz-adv-x="1071" d="M74 457v106h307v307h106v-307h308v-106h-308v-307h-106v307h-307z" />
<glyph unicode="," horiz-adv-x="610" d="M35 -178l141 344l109 -39l-123 -305h-127z" />
<glyph unicode="-" horiz-adv-x="739" d="M41 455v106h469v-106h-469z" />
<glyph unicode="." horiz-adv-x="595" d="M156 0v160h159v-160h-159z" />
<glyph unicode="/" horiz-adv-x="864" d="M16 0l648 1237h129l-646 -1237h-131z" />
<glyph unicode="0" d="M41 244v739q0 61 31 107q10 16 46 55t56 53q51 39 121 39h256q72 0 123 -39q20 -14 56 -53t46 -55q31 -45 31 -107v-739q0 -59 -31 -105q-10 -16 -46 -55t-56 -53q-51 -39 -123 -39h-256q-70 0 -121 39q-20 14 -56 53t-46 55q-31 46 -31 105zM160 248q0 -25 4 -33 q35 -63 98 -100q14 -8 35 -9h252q20 0 35 9q63 37 98 100q6 12 6 33v731q0 23 -6 35q-35 63 -98 100q-14 8 -35 8h-252q-20 0 -35 -8q-63 -37 -98 -100q-4 -8 -4 -35v-731z" />
<glyph unicode="1" d="M111 0v115h297v999h-238v115h356v-1114h277v-115h-692z" />
<glyph unicode="2" d="M39 995q16 41 45 80q68 92 127 129q51 33 106 33h232q72 0 123 -39q20 -14 56 -53t46 -55q31 -45 31 -107v-143q0 -123 -129 -193l-428 -229q-66 -37 -66 -96v-207h606v-115h-725v332q0 121 132 190l430 230q61 33 61 94v133q0 23 -6 35q-35 63 -98 100q-14 8 -35 8h-223 q-20 0 -31 -6q-33 -16 -76 -64t-61 -91z" />
<glyph unicode="3" d="M39 231l119 33q23 -43 64.5 -90t72.5 -63q8 -6 29 -7h225q20 0 35 9q61 35 96 100q6 12 6 33v182q0 20 -6 33q-14 27 -43 55.5t-53 42.5q-16 8 -33 8h-201v115h199q23 0 35 6q25 14 53.5 43t42.5 55q6 12 6 35v158q0 23 -6 35q-14 27 -43 57.5t-53 44.5q-10 6 -35 6h-225 q-20 0 -29 -6q-33 -18 -76 -65t-61 -88l-117 32q16 41 45 80q72 96 127 131q47 31 104 31h234q70 0 121 -39q20 -14 56 -53t46 -55q31 -45 31 -107v-166q0 -59 -31 -106q-20 -31 -80 -86q59 -55 80 -86q31 -47 31 -107v-188q0 -59 -31 -107q-10 -16 -46 -55t-56 -53 q-51 -39 -121 -39h-234q-53 0 -104 33q-61 39 -127 127q-31 44 -47 81z" />
<glyph unicode="4" d="M31 289v114l520 826h174v-826h133v-114h-133v-289h-119v289h-575zM170 403h436v701z" />
<glyph unicode="5" d="M39 231l119 33q23 -43 64.5 -90t72.5 -63q8 -6 31 -7h229q23 0 37 9q61 35 96 100q6 12 6 33v233q0 23 -6 35q-14 27 -43 55.5t-53 42.5q-14 8 -37 9h-455v608h650v-115h-531v-379h338q68 0 123 -41q20 -16 56 -52t46 -52q31 -45 31 -107v-239q0 -59 -31 -107 q-10 -16 -46 -55t-56 -53q-51 -39 -123 -39h-238q-55 0 -106 33q-61 39 -127 127q-31 44 -47 81z" />
<glyph unicode="6" d="M41 244v739q0 61 31 107q10 16 46 55t56 53q51 39 121 39h233q57 0 105 -31q55 -35 127 -131q33 -47 47 -80l-119 -32q-18 41 -61 88t-76 65q-10 6 -31 6h-223q-25 0 -35 -6q-25 -14 -53.5 -45t-42.5 -57q-6 -12 -6 -35v-320q49 53 71 68q45 29 107 29h213q72 0 121 -37 q20 -16 56 -52t46 -53q31 -45 31 -108v-262q0 -59 -31 -107q-10 -16 -46 -55t-56 -53q-51 -39 -121 -39h-256q-70 0 -121 39q-20 14 -56 53t-46 55q-31 48 -31 107zM160 246q0 -20 6 -33q35 -63 98 -100q14 -8 33 -9h252q20 0 35 9q61 35 96 100q6 12 6 33v258q0 20 -6 33 q-35 66 -96 100q-14 8 -35 8h-205q-20 0 -29 -6q-106 -57 -145 -123l-10 -20v-250z" />
<glyph unicode="7" d="M31 1114v115h766v-103l-529 -1126h-131l527 1114h-633z" />
<glyph unicode="8" d="M41 244v186q0 61 31 107q20 31 80 86q-55 51 -80 88q-31 47 -31 106v166q0 61 31 109q10 16 46 53t56 53q51 39 121 39h256q70 0 121 -39q20 -16 56 -53t46 -53q31 -47 31 -109v-166q0 -59 -31 -106q-25 -37 -80 -88q59 -55 80 -86q31 -45 31 -107v-186q0 -59 -31 -107 q-10 -16 -46 -55t-56 -53q-51 -39 -121 -39h-256q-70 0 -121 39q-20 14 -56 53t-46 55q-31 48 -31 107zM160 246q0 -20 6 -33q35 -66 96 -100q14 -8 35 -9h252q18 0 33 9q63 37 98 100q6 12 6 33v180q0 20 -6 33q-33 61 -98 98q-14 8 -33 8h-252q-20 0 -35 -8 q-25 -14 -53.5 -43t-42.5 -55q-6 -12 -6 -33v-180zM160 821q0 -23 6 -35q35 -66 96 -100q10 -6 35 -6h252q18 0 33 8q66 37 98 98q6 12 6 35v158q0 23 -6 35q-35 63 -98 100q-14 8 -33 8h-252q-20 0 -35 -8q-61 -35 -96 -100q-6 -12 -6 -35v-158z" />
<glyph unicode="9" d="M39 231l119 33q18 -41 61 -88t78 -65q10 -6 31 -7h221q27 0 37 7q25 14 53.5 44.5t42.5 57.5q6 12 6 35v327q-47 -49 -74 -67q-45 -29 -104 -29h-213q-74 0 -123 37q-20 16 -56 52t-46 53q-31 47 -31 108v254q0 61 31 107q10 16 46 55t56 53q51 39 123 39h254 q72 0 123 -39q20 -14 56 -53t46 -55q31 -45 31 -107v-739q0 -59 -31 -107q-10 -16 -46 -55t-56 -53q-51 -39 -123 -39h-232q-57 0 -104 30q-55 35 -127 132q-39 54 -49 79zM160 731q0 -20 6 -33q35 -66 96 -100q14 -8 37 -8h205q16 0 26 6q35 18 82 54t66 69l10 20v242 q0 20 -6 33q-35 63 -98 100q-14 8 -35 8h-250q-23 0 -37 -8q-61 -35 -96 -100q-6 -12 -6 -33v-250z" />
<glyph unicode=":" horiz-adv-x="598" d="M113 0v160h159v-160h-159zM113 586v159h159v-159h-159z" />
<glyph unicode=";" horiz-adv-x="604" d="M35 -178l141 344l109 -39l-123 -305h-127zM113 586v159h159v-159h-159z" />
<glyph unicode="&#x3c;" horiz-adv-x="1468" d="M-20 616l616 619h147l-563 -563h1063v-109h-1063l563 -563h-147z" />
<glyph unicode="=" horiz-adv-x="974" d="M45 340v111h705v-111h-705zM45 569v111h705v-111h-705z" />
<glyph unicode="&#x3e;" horiz-adv-x="1468" d="M0 563v109h1063l-563 563h147l617 -619l-617 -616h-147l563 563h-1063z" />
<glyph unicode="?" horiz-adv-x="929" d="M4 995q59 127 172 209q43 33 107 33h252q72 0 122 -39q20 -14 56.5 -53t46.5 -55q31 -45 31 -107v-139q0 -61 -36 -112.5t-93 -80.5l-136 -71q-66 -35 -65 -97v-135h-119v146q0 125 129 190l139 72q61 33 62 94v129q0 23 -6 35q-35 63 -99 100q-14 8 -35 8h-243 q-23 0 -31 -6q-33 -16 -76 -64t-61 -91zM324 0v156h155v-156h-155z" />
<glyph unicode="@" horiz-adv-x="1110" d="M41 266v695q0 66 22 100q18 27 66.5 77t75.5 66q51 33 104 33h309q55 0 107 -33q72 -45 137 -143q27 -41 27 -100v-486l20 -145h-102l-16 73q-10 -20 -33 -43q-41 -41 -76 -41h-154q-84 0 -135 39q-20 14 -50 47t-40 50q-29 43 -29 106v80q0 63 29 107q10 16 40 48.5 t50 47.5q49 37 129 37h258v80q0 18 -6 30q-18 35 -62 78t-71 55q-10 6 -27 6h-295q-16 0 -26 -6q-27 -12 -73 -57t-64 -80q-6 -12 -6 -31v-688q0 -14 6 -26q18 -35 64 -80t73 -58q10 -6 26 -6h465l17 -106h-492q-53 0 -104 33q-27 16 -74 65t-65 76q-25 39 -25 100zM383 565 q0 -27 4 -35q14 -27 43 -55.5t53 -42.5q10 -6 37 -6h127q20 0 29 6q43 23 104 90v252h-260q-27 0 -37 -6q-25 -14 -53.5 -43t-42.5 -55q-4 -8 -4 -33v-72z" />
<glyph unicode="A" horiz-adv-x="1099" d="M-61 0l411 1229h185l411 -1229h-127l-92 285h-569l-95 -285h-124zM195 399h495l-235 713h-27z" />
<glyph unicode="B" horiz-adv-x="1107" d="M59 0v1229h553q68 0 123 -41q20 -16 56 -53t47 -54q29 -43 28 -108v-164q0 -66 -28 -109q-20 -31 -80 -86q59 -55 80 -86q29 -43 28 -108v-168q0 -61 -28 -105q-10 -16 -46 -55t-57 -53q-51 -39 -123 -39h-553zM178 115h432q20 0 35 8q61 35 96 100q6 12 7 33v162 q0 20 -7 33q-35 66 -96 100q-12 6 -33 6h-434v-442zM178 670h434q16 0 33 8q61 35 96 100q6 12 7 35v158q0 20 -7 33q-14 27 -42.5 57.5t-53.5 44.5q-14 8 -35 8h-432v-444z" />
<glyph unicode="C" horiz-adv-x="1079" d="M59 262v701q0 57 27 98q18 29 65.5 78t73.5 65q51 33 105 33h272q53 0 105 -33q59 -37 127 -129q33 -47 47 -80l-119 -34q-18 43 -61.5 91t-75.5 64q-10 6 -29 6h-256q-16 0 -27 -6q-27 -12 -68.5 -53t-60.5 -76q-6 -12 -6 -29v-692q0 -14 6 -26q18 -35 60.5 -76 t68.5 -53q10 -6 27 -7h256q18 0 29 7q31 16 72.5 63t64.5 90l119 -33q-14 -33 -47 -79q-68 -92 -127 -129q-51 -33 -105 -33h-270q-55 0 -107 33q-27 16 -74 65t-65 76q-27 41 -27 98z" />
<glyph unicode="D" horiz-adv-x="1114" d="M59 0v1229h541q57 0 105 -31q27 -16 73.5 -66.5t65.5 -78.5q25 -39 24 -99v-682q0 -59 -24 -98q-18 -27 -65.5 -76t-73.5 -65q-51 -33 -105 -33h-541zM178 115h412q16 0 26 6q27 12 68 53t59 76q6 12 7 26v674q0 18 -7 31q-18 35 -59 75t-68 52q-10 6 -26 6h-412v-999z " />
<glyph unicode="E" horiz-adv-x="1019" d="M59 0v1229h705v-115h-586v-442h555v-115h-555v-442h586v-115h-705z" />
<glyph unicode="F" horiz-adv-x="985" d="M59 0v1229h705v-115h-586v-442h555v-115h-555v-557h-119z" />
<glyph unicode="G" horiz-adv-x="1191" d="M59 262v699q0 59 27 100q18 29 65.5 78t73.5 65q51 33 107 33h315q55 0 107 -33q55 -35 127 -131q35 -51 47 -78l-119 -34q-18 41 -62.5 89t-76.5 66q-10 6 -29 6h-301q-16 0 -27 -6q-27 -12 -68.5 -53t-60.5 -76q-6 -12 -6 -31v-690q0 -14 6 -26q18 -35 60.5 -76 t68.5 -53q10 -6 29 -7h295q18 0 27 7q27 12 69.5 54t61.5 77q6 12 6 26v297h-281v113h400v-436q0 -76 30 -242h-112l-15 100q-51 -66 -71 -77q-51 -33 -105 -33h-315q-55 0 -107 33q-27 16 -74 65t-65 76q-27 41 -27 98z" />
<glyph unicode="H" horiz-adv-x="1138" d="M59 0v1229h119v-557h580v557h119v-1229h-119v557h-580v-557h-119z" />
<glyph unicode="I" horiz-adv-x="442" d="M59 0v1229h119v-1229h-119z" />
<glyph unicode="J" horiz-adv-x="931" d="M-20 233l114 33q23 -43 65 -90t72 -63q10 -6 31 -7h144q16 0 24 7q27 12 69 53t60 76q8 16 8 26v961h119v-963q0 -59 -27 -100q-18 -29 -64 -77t-73 -64q-51 -33 -106 -33h-160q-55 0 -106 33q-55 35 -125 129q-29 38 -45 79z" />
<glyph unicode="K" horiz-adv-x="1038" d="M59 0v1229h119v-559h25l508 559h155l-563 -615l565 -614h-155l-510 557h-25v-557h-119z" />
<glyph unicode="L" horiz-adv-x="931" d="M59 0v1229h119v-1114h574v-115h-693z" />
<glyph unicode="M" horiz-adv-x="1331" d="M61 0v1229h170l334 -719l336 719h168v-1229h-115v1102l-350 -772h-80l-348 772v-1102h-115z" />
<glyph unicode="N" horiz-adv-x="1128" d="M61 0v1229h158l531 -1059v1059h114v-1229h-153l-535 1049v-1049h-115z" />
<glyph unicode="O" horiz-adv-x="1163" d="M59 264v697q0 61 25 100q18 27 66.5 77t74.5 66q51 33 105 33h323q55 0 107 -33q27 -16 74 -65t65 -78q27 -41 27 -100v-697q0 -59 -27 -100q-18 -27 -65.5 -76t-73.5 -65q-51 -33 -107 -33h-323q-53 0 -105 33q-27 16 -75 65t-66 76q-25 39 -25 100zM178 266 q0 -10 8 -26q18 -35 59.5 -76t67.5 -53q10 -6 27 -7h305q18 0 27 7q27 12 68.5 53t60.5 76q6 12 6 26v690q0 18 -6 31q-18 35 -60.5 76t-68.5 53q-8 6 -27 6h-305q-16 0 -27 -6q-27 -12 -67.5 -53t-59.5 -76q-8 -16 -8 -31v-690z" />
<glyph unicode="P" horiz-adv-x="1069" d="M59 0v1229h553q70 0 121 -39q20 -16 57 -54t48 -55q31 -45 30 -106v-180q0 -61 -30 -107q-10 -16 -47 -53t-58 -53q-51 -39 -121 -39h-434v-543h-119zM178 657h432q20 0 35 9q27 14 57.5 43.5t42.5 54.5q4 8 5 35v172q0 27 -5 35q-14 27 -44.5 57.5t-55.5 44.5 q-10 6 -35 6h-432v-457z" />
<glyph unicode="Q" horiz-adv-x="1167" d="M59 262v701q0 59 27 100q18 29 65.5 78t73.5 65q47 31 107 31h325q57 0 105 -31q27 -16 74 -65t65 -78q27 -41 27 -100v-701q0 -59 -27 -100q-18 -27 -65.5 -76t-73.5 -66q-51 -33 -105 -32h-14l78 -185h-123l-74 185h-192q-55 0 -107 32q-27 16 -74 65.5t-65 76.5 q-27 41 -27 100zM178 264q0 -10 8 -26q18 -35 59.5 -76t67.5 -53q10 -6 29 -7h133l-22 60l106 37l39 -97h49q16 0 27 7q27 12 68.5 53t60.5 76q6 12 6 26v697q0 16 -6 28q-18 35 -60.5 76t-68.5 53q-6 4 -27 4h-307q-20 0 -27 -4q-27 -12 -68.5 -53t-60.5 -76q-6 -12 -6 -28 v-697z" />
<glyph unicode="R" horiz-adv-x="1128" d="M59 0v1229h553q72 0 123 -39q20 -14 56 -53t47 -56q31 -45 30 -106v-180q0 -61 -30 -107q-10 -16 -46 -53t-57 -53q-45 -35 -110 -39l299 -543h-136l-292 543h-318v-543h-119zM178 657h432q20 0 35 9q27 14 57.5 43.5t42.5 54.5q4 8 5 35v172q0 27 -5 35 q-14 27 -44.5 57.5t-55.5 44.5q-10 6 -35 6h-432v-457z" />
<glyph unicode="S" horiz-adv-x="1122" d="M18 231l117 33l15 -24q20 -37 59 -76t65 -53q8 -6 29 -7h326q14 0 24 7q27 12 69 53t60 76q6 12 6 26v125q0 33 -18 60.5t-47 35.5l-565 154q-57 16 -92 70.5t-35 122.5v127q0 61 24 100q18 27 66.5 77t75.5 66q51 33 104 33h309q53 0 105 -33q59 -37 127 -129 q33 -47 47 -80l-119 -34l-14 26q-18 35 -58.5 75t-66.5 54q-8 6 -27 6h-293q-16 0 -26 -6q-27 -12 -68 -53t-59 -76q-8 -16 -8 -26v-119q0 -31 18 -57.5t45 -34.5l563 -156q59 -16 95 -70.5t36 -120.5v-139q0 -61 -24 -100q-18 -27 -66.5 -76t-75.5 -65q-51 -33 -104 -33 h-340q-55 0 -107 33q-59 37 -127 129q-29 38 -45 79z" />
<glyph unicode="T" horiz-adv-x="962" d="M-20 1114v115h819v-115h-350v-1114h-119v1114h-350z" />
<glyph unicode="U" horiz-adv-x="1120" d="M59 262v967h119v-963q0 -10 8 -26q18 -35 60.5 -76t68.5 -53q8 -6 27 -7h254q18 0 27 7q25 12 64.5 53t60.5 76q8 16 8 26v963h118v-967q0 -59 -24 -98q-18 -27 -65.5 -76t-73.5 -65q-51 -33 -105 -33h-274q-55 0 -107 33q-27 16 -74 65t-65 76q-27 41 -27 98z" />
<glyph unicode="V" horiz-adv-x="1067" d="M-61 1229h124l355 -1102h28l355 1102h125l-402 -1229h-184z" />
<glyph unicode="W" horiz-adv-x="1509" d="M-20 1229h122l230 -1100h12l242 1100h153l252 -1100h13l219 1100h127l-267 -1229h-170l-249 1071l-242 -1071h-170z" />
<glyph unicode="X" horiz-adv-x="1015" d="M41 1229h131l277 -500l274 500h131l-342 -615l340 -614h-129l-274 500l-277 -500h-129l340 614z" />
<glyph unicode="Y" horiz-adv-x="956" d="M0 1229h127l287 -537h26l289 537h125l-369 -674v-555h-118v555z" />
<glyph unicode="Z" horiz-adv-x="1005" d="M59 0v102l603 1012h-603v115h746v-107l-598 -1007h598v-115h-746z" />
<glyph unicode="[" horiz-adv-x="604" d="M41 0v1229h317v-107h-198v-1016h198v-106h-317z" />
<glyph unicode="\" horiz-adv-x="864" d="M4 1237h129l647 -1237h-131z" />
<glyph unicode="]" horiz-adv-x="645" d="M123 0v106h199v1016h-199v107h317v-1229h-317z" />
<glyph unicode="^" horiz-adv-x="868" d="M113 1104l233 242h143l234 -244h-148l-124 135h-64l-125 -135h-145z" />
<glyph unicode="_" horiz-adv-x="925" d="M31 -35h741v-106h-741v106z" />
<glyph unicode="`" horiz-adv-x="759" d="M154 1341h151l223 -241l-116 -37z" />
<glyph unicode="a" horiz-adv-x="962" d="M0 233v41q0 61 31 109q37 51 90 96q51 39 125 39h356v125q0 20 -4 33q-35 63 -98 100q-14 8 -37 8h-193q-20 0 -34 -8q-51 -29 -99 -102l-106 35q20 33 30 47q39 57 93 98q49 37 122 37h189q76 0 127 -39q39 -25 92 -96q29 -39 29 -111v-500l14 -145h-111l-12 102 q-37 -39 -78 -69q-59 -43 -100 -43h-180q-74 0 -125 39q-53 45 -90 96q-31 47 -31 108zM111 233q0 -20 6 -32q33 -61 94 -97q14 -8 37 -8h172q16 0 29 6q35 18 85 55.5t68 69.5v185h-354q-23 0 -37 -9q-61 -35 -94 -96q-6 -12 -6 -33v-41z" />
<glyph unicode="b" horiz-adv-x="989" d="M41 0l12 145v1084h111v-455q43 45 80 74q59 43 102 43h160q74 0 125 -39q37 -23 92 -98q31 -45 31 -109v-409q0 -63 -31 -109q-39 -53 -92 -98q-51 -39 -125 -39h-160q-43 0 -102 43q-41 31 -80 76l-12 -109h-111zM164 238l4 -11q18 -33 68.5 -69.5t87.5 -55.5 q12 -6 28 -6h152q23 0 37 8q61 35 96 101q6 12 6 35v401q0 23 -6 35q-35 66 -96 100q-14 8 -37 8h-152q-16 0 -28 -6q-37 -18 -87.5 -55t-68.5 -70q-2 -4 -4 -10v-405z" />
<glyph unicode="c" horiz-adv-x="944" d="M41 236v409q0 66 29 109q49 68 92 98q51 39 127 39h203q74 0 124 -39q55 -41 121 -145l-106 -35q-12 27 -43 58.5t-56 45.5q-14 8 -36 8h-205q-23 0 -37 -8q-61 -35 -96 -100q-6 -12 -6 -35v-401q0 -23 6 -35q14 -27 41.5 -56.5t52.5 -44.5q14 -8 37 -8h213q23 0 37 8 q25 14 55.5 46t40.5 55l2 4l106 -37q-51 -94 -120 -143q-51 -39 -125 -39h-209q-76 0 -127 39q-43 31 -92 98q-29 43 -29 109z" />
<glyph unicode="d" horiz-adv-x="989" d="M41 236v409q0 63 31 109q39 53 92 98q51 39 125 39h160q43 0 102 -43q37 -29 80 -74v455h110v-1084l13 -145h-111l-12 109q-39 -45 -80 -76q-59 -43 -102 -43h-160q-74 0 -125 39q-53 45 -92 98q-31 46 -31 109zM152 240q0 -23 6 -35q35 -66 96 -101q14 -8 37 -8h151 q16 0 29 6q37 18 87 55.5t69 69.5q2 4 4 11v405l-4 10q-18 33 -68.5 70t-87.5 55q-12 6 -29 6h-151q-23 0 -37 -8q-61 -35 -96 -100q-6 -12 -6 -35v-401z" />
<glyph unicode="e" horiz-adv-x="968" d="M41 236v409q0 63 31 109q49 68 92 98q51 39 127 39h205q76 0 127 -39q43 -31 92 -98q29 -43 28 -109v-254h-591v-151q0 -23 6 -35q35 -66 96 -101q14 -8 35 -8h215q23 0 37 8q57 33 94 101l2 4l108 -37q-10 -20 -28 -45q-49 -68 -92 -98q-51 -39 -125 -39h-209 q-76 0 -127 39q-43 31 -92 98q-31 46 -31 109zM152 498h481v143q0 27 -4 35q-35 63 -99 100q-14 8 -36 8h-203q-20 0 -35 -8q-63 -37 -98 -100q-6 -12 -6 -35v-143z" />
<glyph unicode="f" horiz-adv-x="626" d="M0 774v107h145v112q0 66 29 109q49 68 92 98q49 37 127 37h131v-107h-129q-33 0 -43 -6q-57 -33 -92 -98q-4 -8 -4 -37v-108h154v-107h-154v-774h-111v774h-145z" />
<glyph unicode="g" horiz-adv-x="1013" d="M41 236v409q0 66 29 109q49 68 92 98q51 39 127 39h172q43 0 102 -43q39 -29 82 -76l12 109h111l-14 -148v-842q0 -66 -29 -108q-49 -68 -92 -98q-51 -39 -127 -39h-209q-74 0 -125 39q-61 43 -121 145l107 35l2 -4q10 -23 40.5 -54.5t55.5 -46.5q14 -8 35 -8h213 q23 0 37 8q63 37 98 101q4 8 4 35v210q-43 -45 -80 -73q-59 -43 -102 -43h-172q-76 0 -127 39q-43 31 -92 98q-29 43 -29 109zM152 240q0 -23 6 -35q35 -66 96 -101q14 -8 37 -8h164q18 0 30 6q33 16 81 54.5t73 70.5l4 11v405l-4 10q-25 33 -73 71t-81 54q-12 6 -30 6h-164 q-23 0 -37 -8q-61 -35 -96 -100q-6 -12 -6 -35v-401z" />
<glyph unicode="h" horiz-adv-x="970" d="M41 0v1229h111v-455q43 45 79 74q59 43 103 43h147q74 0 125 -39q43 -31 92 -98q31 -45 31 -109v-645h-111v641q0 23 -6 35q-35 66 -96 100q-14 8 -37 8h-139q-18 0 -31 -6q-119 -63 -153 -125q0 -2 -2 -4t-2 -4v-645h-111z" />
<glyph unicode="i" horiz-adv-x="421" d="M51 1108v131h127v-131h-127zM59 0v881h111v-881h-111z" />
<glyph unicode="j" horiz-adv-x="428" d="M-184 -246h127q27 0 37 6q25 14 52 44t42 57q6 12 6 35v985h110v-990q0 -63 -30 -108q-51 -70 -90 -98q-49 -37 -125 -37h-129v106zM74 1108v131h127v-131h-127z" />
<glyph unicode="k" horiz-adv-x="876" d="M43 0v1229h111v-717h41l350 369h147l-401 -418l436 -463h-149l-381 408h-43v-408h-111z" />
<glyph unicode="l" horiz-adv-x="419" d="M53 115v1114h111v-1090q0 -25 8 -74t10 -65h-110q-2 12 -10.5 53.5t-8.5 61.5z" />
<glyph unicode="m" horiz-adv-x="1458" d="M41 881h111l12 -105q43 45 78 72q59 43 100 43h102q76 0 127 -39q43 -31 93 -98l2 -4q61 70 100 98q59 43 102 43h97q76 0 127 -39q43 -31 92 -98q29 -43 28 -109v-645h-110v641q0 23 -6 35q-14 27 -43 57.5t-54 44.5q-10 6 -36 6h-89q-18 0 -30 -6q-117 -66 -152 -121 v-12v-645h-108v641q0 23 -6 35q-14 27 -44 57.5t-55 44.5q-10 6 -37 6h-96q-16 0 -29 -6q-115 -61 -153 -123v-655h-111v735z" />
<glyph unicode="n" horiz-adv-x="985" d="M41 881h111l12 -103q41 45 76 70q59 43 102 43h154q76 0 127 -39q43 -31 92 -98q29 -43 28 -109v-645h-110v641q0 27 -4 35q-35 63 -99 100q-14 8 -36 8h-146q-16 0 -29 -6q-115 -61 -153 -123v-655h-111v735z" />
<glyph unicode="o" horiz-adv-x="966" d="M31 236v409q0 66 28 109q49 68 93 98q51 39 127 39h204q76 0 127 -39q43 -31 92 -98q29 -43 29 -109v-409q0 -66 -29 -109q-49 -68 -92 -98q-51 -39 -127 -39h-204q-76 0 -127 39q-43 31 -93 98q-28 43 -28 109zM141 240q0 -23 6 -35q35 -66 97 -101q14 -8 37 -8h200 q23 0 37 8q63 37 98 101q4 8 5 35v401q0 27 -5 35q-35 63 -98 100q-14 8 -37 8h-200q-23 0 -37 -8q-61 -35 -97 -100q-6 -12 -6 -35v-401z" />
<glyph unicode="p" horiz-adv-x="989" d="M41 881h111l12 -109q49 53 80 76q59 43 102 43h160q74 0 125 -39q43 -31 92 -98q31 -45 31 -109v-418q0 -63 -31 -108q-49 -68 -92 -99q-51 -39 -125 -38h-160q-43 0 -102 43q-37 29 -80 73v-442h-111v1079zM164 229q0 -2 4 -10q35 -61 156 -125q12 -6 28 -6h152 q23 0 37 8q61 35 96 101q6 12 6 34v410q0 23 -6 35q-35 66 -96 100q-14 8 -37 8h-152q-16 0 -28 -6q-119 -63 -156 -125q-4 -8 -4 -12v-412z" />
<glyph unicode="q" horiz-adv-x="978" d="M41 229v416q0 63 31 109q49 68 92 98q51 39 125 39h160q43 0 102 -43q31 -23 80 -76l12 109h111l-13 -146v-1079h-110v444q-43 -45 -80 -73q-59 -43 -102 -43h-160q-74 0 -125 39q-43 31 -92 98q-31 47 -31 108zM152 233q0 -23 6 -34q35 -66 96 -101q14 -8 37 -8h151 q16 0 29 6q121 63 156 125q4 8 4 10v410q0 4 -4 12q-37 61 -156 125q-12 6 -29 6h-151q-23 0 -37 -8q-61 -35 -96 -100q-6 -12 -6 -35v-408z" />
<glyph unicode="r" horiz-adv-x="851" d="M41 881h111l12 -105q59 59 78 72q59 43 102 43h102q74 0 125 -39q39 -29 91 -98q18 -25 30 -45l-106 -35q-51 76 -99 102q-14 8 -36 8h-101q-18 0 -31 -6q-121 -63 -155 -125v-653h-111v735z" />
<glyph unicode="s" horiz-adv-x="956" d="M2 172l107 37q33 -68 96 -105q14 -8 37 -8h247q20 0 35 8q59 33 90 93q6 12 7 34v74q0 31 -23 51.5t-55 24.5l-338 25q-76 6 -127 59t-51 127v61q0 63 30 109q45 63 84 90q51 39 125 39h213q74 0 125 -39q43 -31 92 -98q23 -31 29 -45l-107 -37q-12 27 -42.5 58.5 t-55.5 45.5q-14 8 -35 8h-217q-23 0 -37 -8q-57 -33 -88 -90q-6 -12 -6 -35v-61q0 -31 22.5 -51.5t55.5 -24.5l338 -27q76 -6 127 -59t51 -127v-74q0 -63 -31 -108q-45 -63 -84 -90q-51 -39 -124 -39h-246q-74 0 -125 39q-41 31 -90 96q-27 43 -29 47z" />
<glyph unicode="t" horiz-adv-x="690" d="M-20 774v107h145v348h111v-348h270v-107h-270v-524q0 -27 6 -39q33 -63 92 -96q14 -8 41 -9h129v-106h-131q-74 0 -125 39q-43 31 -92 98q-31 47 -31 109v528h-145z" />
<glyph unicode="u" horiz-adv-x="970" d="M33 236v645h110v-641q0 -27 4 -35q35 -63 99 -101q14 -8 37 -8h145q16 0 29 6q115 61 153 123v656h111v-736l14 -145h-110l-13 102q-41 -45 -75 -69q-59 -43 -103 -43h-153q-76 0 -127 39q-43 31 -93 98q-28 43 -28 109z" />
<glyph unicode="v" horiz-adv-x="874" d="M-31 881h119l242 -768h12l242 768h116l-286 -881h-154z" />
<glyph unicode="w" horiz-adv-x="1359" d="M-31 881h119l209 -762h12l201 762h158l209 -762h12l201 762h116l-248 -881h-153l-217 752l-209 -752h-154z" />
<glyph unicode="x" horiz-adv-x="880" d="M-20 0l292 453l-282 428h135l213 -342l207 342h135l-277 -428l293 -453h-131l-227 358l-227 -358h-131z" />
<glyph unicode="y" horiz-adv-x="860" d="M-31 881h119l242 -768h12l242 768h118l-399 -1225h-117l117 344h-47z" />
<glyph unicode="z" horiz-adv-x="864" d="M20 774v107h617v-101l-461 -674h483v-106h-622v98l463 676h-480z" />
<glyph unicode="{" horiz-adv-x="712" d="M43 266v695q0 61 25 100q18 29 64 78t73 65q51 33 106 33h113v-115h-102q-18 0 -27 -6q-25 -12 -67 -53t-60 -76q-6 -12 -6 -31v-688q0 -14 6 -26q18 -35 60 -76t67 -53q8 -6 27 -7h102v-114h-113q-53 0 -104 33q-27 16 -75 65t-66 76q-23 34 -23 100z" />
<glyph unicode="|" horiz-adv-x="309" d="M0 -193v1594h111v-1594h-111z" />
<glyph unicode="}" horiz-adv-x="712" d="M123 -8v114h102q16 0 27 7q27 12 67.5 53t59.5 76q8 16 8 26v688q0 14 -8 31q-18 35 -59 76t-68 53q-10 6 -27 6h-102v115h113q55 0 106 -33q27 -16 73 -65t64 -78q27 -41 27 -100v-695q0 -61 -25 -100q-18 -27 -66 -76t-75 -65q-51 -33 -104 -33h-113z" />
<glyph unicode="~" horiz-adv-x="946" d="M76 1286l104 25q20 -61 96 -51l150 36q72 18 137.5 -17.5t85.5 -107.5l-104 -24q-20 61 -96 51l-150 -37q-72 -18 -137.5 17.5t-85.5 107.5z" />
<glyph unicode="&#xa1;" horiz-adv-x="448" d="M61 1085v144h140v-144h-140zM74 0v862h112v-862h-112z" />
<glyph unicode="&#xa2;" horiz-adv-x="923" d="M41 236v409q0 66 29 109q49 68 92 98q51 39 127 39h49v213h111v-213h63q74 0 125 -39q35 -25 90 -100l11 -17q7 -10 11.5 -17t6.5 -11l-105 -35l-2 4q-10 23 -40.5 54.5t-55.5 45.5q-14 8 -37 8h-67v-688h73q23 0 37 8q25 14 54.5 46t39.5 55l2 4l105 -37q-2 -6 -27 -45 q-51 -70 -90 -98q-51 -39 -125 -39h-69v-187h-111v187h-49q-76 0 -127 39q-43 31 -92 98q-29 43 -29 109zM152 240q0 -23 6 -35q35 -66 96 -101q14 -8 37 -8h47v688h-47q-23 0 -37 -8q-61 -35 -96 -100q-6 -12 -6 -35v-401z" />
<glyph unicode="&#xa3;" horiz-adv-x="1193" d="M45 332v106h84v119h-84v107h84v297q0 59 25 98q18 29 65 78t74 65q51 33 104 33h258v-115h-247q-18 0 -27 -6q-27 -12 -69 -53t-60 -76q-4 -8 -4 -78v-243h487v-107h-487v-119h487v-106h-487v-217h436q20 0 29 6q33 18 77 66.5t62 88.5l115 -34q-18 -45 -45 -82 q-66 -88 -127 -127q-51 -33 -105 -33h-561v332h-84z" />
<glyph unicode="&#xa4;" horiz-adv-x="1193" d="M41 453v106h88v119h-88v106h88v179q0 59 25 98q18 29 65 78t74 65q51 33 104 33h293q53 0 105 -33q61 -39 129 -129q23 -33 43 -80l-115 -34q-18 41 -62.5 89t-76.5 66q-8 6 -29 6h-276q-18 0 -27 -6q-27 -12 -69 -53t-60 -76q-4 -8 -4 -31v-172h483v-106h-483v-119h483 v-106h-483v-187q0 -18 4 -26q18 -35 60 -76t69 -53q8 -6 27 -7h276q20 0 29 7q33 16 75.5 64t63.5 89l115 -33q-18 -45 -45 -81q-66 -88 -127 -127q-51 -33 -105 -33h-291q-55 0 -106 33q-27 16 -74 65t-65 76q-25 39 -25 98v191h-88z" />
<glyph unicode="&#xa5;" horiz-adv-x="995" d="M0 1229h127l297 -527h27l299 527h124l-321 -563h223v-107h-280v-119h280v-106h-280v-334h-119v334h-291v106h291v119h-291v107h233z" />
<glyph unicode="&#xa6;" horiz-adv-x="1071" />
<glyph unicode="&#xa7;" horiz-adv-x="1024" d="M39 977v22q-2 55 33 109q45 63 84 90q51 39 125 39h292q74 0 125 -39q43 -31 119 -145l-104 -35q-12 27 -43 59.5t-56 46.5q-10 6 -36 6h-295q-25 0 -35 -6q-57 -33 -90 -94q-6 -12 -6 -35v-20q2 -31 24.5 -55.5t52.5 -26.5l351 -19q55 -4 92 -28q74 -53 108 -103 q39 -51 39 -127v-16q0 -74 -39 -125q-23 -31 -65 -69q100 -51 100 -164v-23q0 -55 -31 -100q-45 -63 -84 -90q-51 -39 -125 -39h-292q-74 0 -125 39q-63 45 -117 143l104 37q33 -68 97 -105q14 -8 37 -8h294q23 0 37 8q55 31 88 93q6 12 7 26v23q0 31 -23 53.5t-55 24.5 l-314 16q-25 0 -37 2q-35 6 -71 29q-76 55 -111 104q-39 51 -39 125v16q0 74 39 125q23 29 62 66q-107 45 -117 170zM162 602q0 -23 8 -37q45 -78 104 -110q12 -6 35 -6l256 -15q23 0 35 6q51 27 105 121q8 14 8 35v20q0 20 -8 35q-45 78 -105 111q-12 6 -35 6l-256 12 q-23 0 -35 -6q-25 -12 -56.5 -50t-47.5 -67q-8 -14 -8 -36v-19z" />
<glyph unicode="&#xa8;" horiz-adv-x="743" d="M172 1106v131h127v-131h-127zM471 1106v131h127v-131h-127z" />
<glyph unicode="&#xa9;" horiz-adv-x="1310" d="M41 266v695q0 59 25 98q18 29 65 79t74 66q51 33 104 33h504q55 0 107 -33q27 -16 73.5 -66.5t65.5 -78.5q27 -41 26 -98v-695q0 -57 -26 -98q-18 -27 -65.5 -76t-73.5 -65q-51 -33 -107 -33h-504q-53 0 -104 33q-27 16 -74 65t-65 76q-25 39 -25 98zM156 270 q0 -14 6 -26q18 -35 61 -78t70 -55q10 -6 26 -7h484q16 0 26 7q27 12 72 56t64 77q6 12 6 26v686q0 14 -8 31q-18 35 -62.5 78t-71.5 55q-10 6 -26 6h-484q-16 0 -26 -6q-27 -12 -70 -55t-61 -78q-6 -12 -6 -31v-686zM283 512v227q0 59 30 107q10 16 40 49t50 47 q49 37 123 37h129q43 0 101 -41q51 -39 106 -104l-106 -33q-37 45 -78 67q-6 4 -27 4h-123q-25 0 -34 -6q-25 -14 -53.5 -42.5t-43.5 -55.5q-6 -12 -6 -33v-219q0 -23 6 -35q14 -27 43 -55.5t54 -42.5q10 -6 34 -6h123q20 0 27 4q39 20 78 72l108 -33q-55 -68 -108 -107 q-59 -43 -101 -43h-129q-72 0 -123 39q-20 14 -49.5 47t-40.5 50q-30 45 -30 106z" />
<glyph unicode="&#xaa;" horiz-adv-x="761" d="M61 858v174q0 57 25 92q27 43 76 80q45 33 110 33h244v-455l21 -123h-88l-15 58q-14 -16 -33 -31q-39 -29 -61 -29h-100q-41 0 -78 27q-47 35 -76 82q-25 35 -25 92zM152 862q0 -16 6 -28q33 -57 82 -86q12 -6 30 -7h39q20 0 27 4q33 16 90 78v326h-156q-18 0 -30 -6 q-49 -29 -82 -86q-6 -12 -6 -29v-166z" />
<glyph unicode="&#xab;" horiz-adv-x="1114" d="M82 506v43l274 297l121 -37l-248 -258v-45l248 -260l-121 -35zM432 506v43l275 297l120 -37l-247 -258v-45l247 -260l-120 -35z" />
<glyph unicode="&#xac;" horiz-adv-x="1228" />
<glyph unicode="&#xad;" horiz-adv-x="739" d="M41 455v106h469v-106h-469z" />
<glyph unicode="&#xae;" horiz-adv-x="1310" d="M41 266v695q0 59 25 98q18 29 65 79t74 66q51 33 104 33h504q55 0 107 -33q27 -16 73.5 -66.5t65.5 -78.5q27 -41 26 -98v-695q0 -57 -26 -98q-18 -27 -65.5 -76t-73.5 -65q-51 -33 -107 -33h-504q-53 0 -104 33q-27 16 -74 65t-65 76q-25 39 -25 98zM156 270 q0 -14 6 -26q18 -35 61 -78t70 -55q10 -6 26 -7h484q16 0 26 7q27 12 72 56t64 77q6 12 6 26v686q0 14 -8 31q-18 35 -62.5 78t-71.5 55q-10 6 -26 6h-484q-16 0 -26 -6q-27 -12 -70 -55t-61 -78q-6 -12 -6 -31v-686zM305 250v741h291q72 0 123 -39q20 -16 56 -51t46 -51 q29 -43 29 -105v-22q0 -66 -29 -109q-18 -31 -102 -94q-27 -20 -66 -31l138 -239h-119l-131 231h-123v-231h-113zM418 590h178q23 0 37 8q76 43 100 90q6 12 6 35v22q0 20 -6 33q-31 57 -100 96q-14 8 -37 9h-178v-293z" />
<glyph unicode="&#xaf;" horiz-adv-x="421" d="M53 1108v131h336v-131h-336z" />
<glyph unicode="&#xb0;" horiz-adv-x="765" d="M39 1229v39q0 57 39 110q37 49 90 86q45 29 96 29h55q51 0 97 -29q53 -37 88 -84q37 -51 37 -112v-39q0 -61 -37 -113q-35 -47 -88 -84q-45 -29 -97 -28h-55q-51 0 -96 28q-57 41 -92 86q-37 52 -37 111zM129 1229q0 -16 8 -33q35 -63 92 -96q12 -6 31 -6h64q18 0 30 6 q57 33 92 96q6 12 7 33v37q0 23 -7 34q-35 63 -92 97q-8 4 -32 4h-62q-23 0 -31 -4q-57 -33 -92 -97q-8 -16 -8 -34v-37z" />
<glyph unicode="&#xb1;" horiz-adv-x="1024" />
<glyph unicode="&#xb2;" horiz-adv-x="620" d="M4 1126q109 82 111 84q47 29 96 29h92q57 0 103 -35q61 -47 79 -69q25 -31 27 -76v-31q8 -90 -119 -129l-235 -78q-45 -23 -45 -67v-25h397v-96h-496v129q0 117 119 151l225 70l15 7l14 7q4 2 11.5 7.5t10.5 10.5t5 12t2 15v13q0 10 -4 18q-14 27 -80 64q-12 6 -33 6h-92 q-20 0 -27 -4q-10 -6 -110 -78z" />
<glyph unicode="&#xb3;" horiz-adv-x="620" d="M6 745l68 66q106 -76 108 -78q6 -4 27 -4h92q20 0 33 6q68 39 80 62q6 14 6 18l-2 21q-2 10 -4 17t-10 14l-9 10q-2 2 -16 8t-17 8h-163v86h163l9.5 5t8.5 4t7 4t7 4t6 4.5t6 6.5l4 6q2 3 4 7t3 8t1 10l2 17q2 6 -6 20q-14 27 -80 64q-12 6 -33 6h-92q-16 0 -27 -6 q-2 -2 -108 -78l-68 67q82 63 113 82q47 29 94 29h92q57 0 103 -35q70 -53 81 -67q27 -35 27 -78v-33q0 -61 -35 -92q35 -35 35 -86v-31q0 -45 -27 -80q-18 -25 -81 -71q-41 -33 -103 -33h-92q-51 0 -94 26q-16 10 -34.5 23.5t-41.5 32.5z" />
<glyph unicode="&#xb4;" horiz-adv-x="759" d="M213 1100l223 241h152l-258 -278z" />
<glyph unicode="&#xb6;" horiz-adv-x="1058" d="M47 805v170q0 61 31 106q10 16 47 54.5t57 54.5q51 39 123 39h572v-1229h-119v553h-125v-553h-109v553h-219q-72 0 -123 39q-20 16 -57 53t-47 53q-31 48 -31 107zM168 809q0 -23 6 -35q14 -27 43 -55.5t53 -42.5q14 -8 37 -8h217v446h-217q-27 0 -37 -6 q-25 -14 -53.5 -45t-42.5 -57q-6 -12 -6 -35v-162zM633 668h125v446h-125v-446z" />
<glyph unicode="&#xb7;" horiz-adv-x="595" d="M156 434v160h159v-160h-159z" />
<glyph unicode="&#xb8;" horiz-adv-x="831" d="M205 -360l121 266l108 -39l-104 -227h-125z" />
<glyph unicode="&#xb9;" horiz-adv-x="620" d="M94 633v84h121v436h-121v84h205v-520h117v-84h-322z" />
<glyph unicode="&#xba;" horiz-adv-x="800" d="M61 858v152q0 55 27 96q43 61 92 98q45 35 111 35h43q68 0 112 -35q49 -37 93 -98q27 -41 26 -96v-152q0 -55 -26 -96q-37 -53 -93 -94q-41 -33 -112 -33h-43q-70 0 -111 33q-55 41 -92 94q-27 41 -27 96zM158 856q0 -16 6 -29q29 -53 96 -92q12 -6 33 -6h41q20 0 33 6 q68 39 96 92q4 8 4 29v158q0 23 -4 30q-29 53 -96 93q-12 6 -33 6h-41q-20 0 -33 -6q-68 -39 -96 -93q-6 -12 -6 -30v-158z" />
<glyph unicode="&#xbb;" horiz-adv-x="1114" d="M82 246l248 260v45l-248 258l121 37l274 -297v-43l-274 -295zM432 246l248 260v45l-248 258l121 37l274 -297v-43l-274 -295z" />
<glyph unicode="&#xbc;" horiz-adv-x="1349" d="M94 633v84h121v436h-121v84h205v-520h117v-84h-322zM225 0l647 1237h125l-647 -1237h-125zM623 147v86l303 373h84v-373h100v-86h-100v-147h-84v147h-303zM731 233h195v240z" />
<glyph unicode="&#xbd;" horiz-adv-x="1347" d="M94 633v84h121v436h-121v84h205v-520h117v-84h-322zM225 0l647 1237h125l-647 -1237h-125zM711 494q109 82 110 84q47 29 97 28h92q57 0 102 -35q61 -47 80 -69q25 -31 27 -74v-27q4 -94 -119 -131l-236 -82q-45 -23 -45 -65v-27h398v-96h-496v131q0 115 119 150l225 69 l14 7l15 8q4 2 11 7t10 10t5 12t2 16v14q0 10 -4 18q-12 23 -80 62q-12 6 -32 6h-93q-20 0 -26 -4q-23 -12 -111 -76z" />
<glyph unicode="&#xbe;" horiz-adv-x="1349" d="M6 745l68 66q106 -76 108 -78q6 -4 27 -4h92q20 0 33 6q68 39 80 62q6 14 6 18l-2 21q-2 10 -4 17t-10 14l-9 10q-2 2 -16 8t-17 8h-163v86h163l9.5 5t8.5 4t7 4t7 4t6 4.5t6 6.5l4 6q2 3 4 7t3 8t1 10l2 17q2 6 -6 20q-14 27 -80 64q-12 6 -33 6h-92q-16 0 -27 -6 q-2 -2 -108 -78l-68 67q68 51 113 80q47 29 94 29h92q57 0 103 -35q74 -55 81 -65q27 -35 27 -78v-33q0 -61 -35 -92q35 -35 35 -86v-31q0 -45 -27 -80q-14 -20 -81 -69q-41 -33 -103 -33h-92q-51 0 -94 27q-15 7 -113 83zM225 0l647 1237h125l-647 -1237h-125zM623 147v86 l303 373h84v-373h100v-86h-100v-147h-84v147h-303zM731 233h195v240z" />
<glyph unicode="&#xbf;" horiz-adv-x="931" d="M47 248v141q0 127 127 193l137 71q66 33 66 97v131h119v-142q0 -121 -131 -190l-138 -74q-61 -33 -61 -92v-131q0 -23 6 -35q35 -66 96 -100q14 -8 37 -8h244q20 0 29 6q33 16 75.5 64t63.5 89l114 -32q-16 -41 -45 -80q-68 -92 -127 -129q-51 -33 -106 -33h-250 q-74 0 -125 39q-20 14 -56 53t-46 55q-29 44 -29 107zM356 1071v158h158v-158h-158z" />
<glyph unicode="&#xc0;" horiz-adv-x="1110" d="M-61 0l411 1229h185l411 -1229h-127l-92 285h-569l-95 -285h-124zM195 399h495l-235 713h-27zM260 1634h152l223 -241l-117 -37z" />
<glyph unicode="&#xc1;" horiz-adv-x="1110" d="M-61 0l411 1229h185l411 -1229h-127l-92 285h-569l-95 -285h-124zM195 399h495l-235 713h-27zM254 1386l223 242h152l-258 -278z" />
<glyph unicode="&#xc2;" horiz-adv-x="1110" d="M-61 0l411 1229h185l411 -1229h-127l-92 285h-569l-95 -285h-124zM139 1386l234 242h143l234 -242l-5 -2h-143l-125 136h-63l-125 -136h-146zM195 399h495l-235 713h-27z" />
<glyph unicode="&#xc3;" horiz-adv-x="1110" d="M-61 0l411 1229h185l411 -1229h-127l-92 285h-569l-95 -285h-124zM154 1511l104 25q20 -61 96 -51l150 37q72 18 137.5 -18t85.5 -107l-104 -25q-20 61 -97 51l-149 -37q-72 -18 -137.5 17.5t-85.5 107.5zM195 399h495l-235 713h-27z" />
<glyph unicode="&#xc4;" horiz-adv-x="1110" d="M-61 0l411 1229h185l411 -1229h-127l-92 285h-569l-95 -285h-124zM195 399h495l-235 713h-27zM233 1378v131h127v-131h-127zM532 1378v131h127v-131h-127z" />
<glyph unicode="&#xc5;" horiz-adv-x="1110" d="M-61 0l411 1229h185l411 -1229h-127l-92 285h-569l-95 -285h-124zM193 1559v38q0 59 36 111q37 49 90 86q45 29 97 29h55q51 0 96 -29q53 -37 88 -84q37 -51 37 -113v-38q0 -61 -37 -113q-35 -47 -88 -84q-45 -29 -96 -29h-55q-51 0 -97 29q-57 41 -92 86q-34 48 -34 111 zM195 399h495l-235 713h-27zM281 1559q0 -16 8 -33q35 -63 92 -96q12 -6 31 -7h63q18 0 31 7q57 33 92 96q6 12 6 33v36q0 23 -6 35q-35 63 -92 96q-8 4 -33 5h-61q-23 0 -31 -5q-57 -33 -92 -96q-8 -16 -8 -35v-36z" />
<glyph unicode="&#xc6;" horiz-adv-x="1243" d="M-51 0l411 1229h627v-115h-401v-442h401v-115h-401v-442h401v-115h-520v283h-297l-92 -283h-129zM205 397h262v715h-27z" />
<glyph unicode="&#xc7;" horiz-adv-x="1079" d="M59 262v701q0 57 27 98q18 29 65.5 78t73.5 65q51 33 105 33h272q53 0 105 -33q59 -37 127 -129q33 -47 47 -80l-119 -34q-18 43 -61.5 91t-75.5 64q-10 6 -29 6h-256q-16 0 -27 -6q-27 -12 -68.5 -53t-60.5 -76q-6 -12 -6 -29v-692q0 -14 6 -26q18 -35 60.5 -76 t68.5 -53q10 -6 27 -7h256q18 0 29 7q31 16 72.5 63t64.5 90l119 -33q-14 -33 -47 -79q-68 -92 -127 -129q-51 -33 -105 -33h-270q-55 0 -107 33q-27 16 -74 65t-65 76q-27 41 -27 98zM324 -360l121 266l108 -39l-104 -227h-125z" />
<glyph unicode="&#xc8;" horiz-adv-x="1026" d="M59 0v1229h705v-115h-586v-442h555v-115h-555v-442h586v-115h-705zM213 1628h152l223 -242l-117 -36z" />
<glyph unicode="&#xc9;" horiz-adv-x="1026" d="M59 0v1229h705v-115h-586v-442h555v-115h-555v-442h586v-115h-705zM260 1386l223 242h152l-258 -278z" />
<glyph unicode="&#xca;" horiz-adv-x="1026" d="M59 0v1229h705v-115h-586v-442h555v-115h-555v-442h586v-115h-705zM119 1386l233 242h144l233 -242l-4 -2h-143l-125 136h-64l-125 -136h-145z" />
<glyph unicode="&#xcb;" horiz-adv-x="1026" d="M59 0v1229h705v-115h-586v-442h555v-115h-555v-442h586v-115h-705zM225 1378v131h127v-131h-127zM524 1378v131h127v-131h-127z" />
<glyph unicode="&#xcc;" horiz-adv-x="471" d="M-106 1628h151l223 -242l-116 -36zM59 0v1229h119v-1229h-119z" />
<glyph unicode="&#xcd;" horiz-adv-x="471" d="M-29 1386l224 242h151l-258 -278zM59 0v1229h119v-1229h-119z" />
<glyph unicode="&#xce;" horiz-adv-x="471" d="M-186 1386l233 242h143l234 -242l-4 -2h-144l-124 136h-64l-125 -136h-145zM59 0v1229h119v-1229h-119z" />
<glyph unicode="&#xcf;" horiz-adv-x="471" d="M-94 1389v131h127v-131h-127zM59 0v1229h119v-1229h-119zM205 1389v131h127v-131h-127z" />
<glyph unicode="&#xd0;" horiz-adv-x="1122" />
<glyph unicode="&#xd1;" horiz-adv-x="1128" d="M61 0v1229h158l531 -1059v1059h114v-1229h-153l-535 1049v-1049h-115zM195 1569l104 25q20 -61 96 -51l150 36q72 18 137.5 -17.5t85.5 -107.5l-104 -24q-20 61 -96 51l-150 -37q-72 -18 -137.5 17.5t-85.5 107.5z" />
<glyph unicode="&#xd2;" horiz-adv-x="1165" d="M59 264v697q0 61 25 100q18 27 66.5 77t74.5 66q51 33 105 33h323q55 0 107 -33q27 -16 74 -65t65 -78q27 -41 27 -100v-697q0 -59 -27 -100q-18 -27 -65.5 -76t-73.5 -65q-51 -33 -107 -33h-323q-53 0 -105 33q-27 16 -75 65t-66 76q-25 39 -25 100zM178 266 q0 -10 8 -26q18 -35 59.5 -76t67.5 -53q10 -6 27 -7h305q18 0 27 7q27 12 68.5 53t60.5 76q6 12 6 26v690q0 18 -6 31q-18 35 -60.5 76t-68.5 53q-8 6 -27 6h-305q-16 0 -27 -6q-27 -12 -67.5 -53t-59.5 -76q-8 -16 -8 -31v-690zM297 1628h152l223 -242l-117 -36z" />
<glyph unicode="&#xd3;" horiz-adv-x="1165" d="M59 264v697q0 61 25 100q18 27 66.5 77t74.5 66q51 33 105 33h323q55 0 107 -33q27 -16 74 -65t65 -78q27 -41 27 -100v-697q0 -59 -27 -100q-18 -27 -65.5 -76t-73.5 -65q-51 -33 -107 -33h-323q-53 0 -105 33q-27 16 -75 65t-66 76q-25 39 -25 100zM178 266 q0 -10 8 -26q18 -35 59.5 -76t67.5 -53q10 -6 27 -7h305q18 0 27 7q27 12 68.5 53t60.5 76q6 12 6 26v690q0 18 -6 31q-18 35 -60.5 76t-68.5 53q-8 6 -27 6h-305q-16 0 -27 -6q-27 -12 -67.5 -53t-59.5 -76q-8 -16 -8 -31v-690zM303 1386l223 242h152l-258 -278z" />
<glyph unicode="&#xd4;" horiz-adv-x="1165" d="M59 264v697q0 61 25 100q18 27 66.5 77t74.5 66q51 33 105 33h323q55 0 107 -33q27 -16 74 -65t65 -78q27 -41 27 -100v-697q0 -59 -27 -100q-18 -27 -65.5 -76t-73.5 -65q-51 -33 -107 -33h-323q-53 0 -105 33q-27 16 -75 65t-66 76q-25 39 -25 100zM178 266 q0 -10 8 -26q18 -35 59.5 -76t67.5 -53q10 -6 27 -7h305q18 0 27 7q27 12 68.5 53t60.5 76q6 12 6 26v690q0 18 -6 31q-18 35 -60.5 76t-68.5 53q-8 6 -27 6h-305q-16 0 -27 -6q-27 -12 -67.5 -53t-59.5 -76q-8 -16 -8 -31v-690zM199 1386l233 242h143l234 -242l-4 -2h-143 l-125 136h-64l-125 -136h-145z" />
<glyph unicode="&#xd5;" horiz-adv-x="1165" d="M59 264v697q0 61 25 100q18 27 66.5 77t74.5 66q51 33 105 33h323q55 0 107 -33q27 -16 74 -65t65 -78q27 -41 27 -100v-697q0 -59 -27 -100q-18 -27 -65.5 -76t-73.5 -65q-51 -33 -107 -33h-323q-53 0 -105 33q-27 16 -75 65t-66 76q-25 39 -25 100zM178 266 q0 -10 8 -26q18 -35 59.5 -76t67.5 -53q10 -6 27 -7h305q18 0 27 7q27 12 68.5 53t60.5 76q6 12 6 26v690q0 18 -6 31q-18 35 -60.5 76t-68.5 53q-8 6 -27 6h-305q-16 0 -27 -6q-27 -12 -67.5 -53t-59.5 -76q-8 -16 -8 -31v-690zM215 1511l104 25q20 -61 97 -51l149 37 q72 18 137.5 -18t85.5 -107l-104 -25q-20 61 -96 51l-150 -37q-72 -18 -137.5 17.5t-85.5 107.5z" />
<glyph unicode="&#xd6;" horiz-adv-x="1165" d="M59 264v697q0 61 25 100q18 27 66.5 77t74.5 66q51 33 105 33h323q55 0 107 -33q27 -16 74 -65t65 -78q27 -41 27 -100v-697q0 -59 -27 -100q-18 -27 -65.5 -76t-73.5 -65q-51 -33 -107 -33h-323q-53 0 -105 33q-27 16 -75 65t-66 76q-25 39 -25 100zM178 266 q0 -10 8 -26q18 -35 59.5 -76t67.5 -53q10 -6 27 -7h305q18 0 27 7q27 12 68.5 53t60.5 76q6 12 6 26v690q0 18 -6 31q-18 35 -60.5 76t-68.5 53q-8 6 -27 6h-305q-16 0 -27 -6q-27 -12 -67.5 -53t-59.5 -76q-8 -16 -8 -31v-690zM279 1378v131h127v-131h-127zM578 1378v131 h127v-131h-127z" />
<glyph unicode="&#xd7;" horiz-adv-x="1228" />
<glyph unicode="&#xd8;" horiz-adv-x="1136" d="M8 268v693q0 61 25 100q18 29 65 78t74 65q51 33 104 33h349q33 0 80 -18l30 57h129l-69 -129q55 -55 73 -86q27 -41 27 -100v-693q0 -59 -27 -100q-18 -29 -64 -77t-73 -64q-51 -33 -106 -33h-349q-39 0 -79 20l-37 -71h-131l75 143q-51 51 -71 82q-25 39 -25 100z M127 270q0 -10 8 -26q12 -23 31 -43l481 909l-4 4q-8 8 -27 8h-329q-16 0 -27 -6q-25 -12 -64.5 -53t-60.5 -76q-8 -16 -8 -31v-686zM254 121l6 -6q10 -6 27 -6h329q18 0 27 6q25 12 67 53t60 76q6 12 6 26v686q0 18 -6 31q-8 14 -35 45z" />
<glyph unicode="&#xd9;" horiz-adv-x="1095" d="M59 262v967h119v-963q0 -10 8 -26q18 -35 60.5 -76t68.5 -53q8 -6 27 -7h254q18 0 27 7q25 12 64.5 53t60.5 76q8 16 8 26v963h118v-967q0 -59 -24 -98q-18 -27 -65.5 -76t-73.5 -65q-51 -33 -105 -33h-274q-55 0 -107 33q-27 16 -74 65t-65 76q-27 41 -27 98zM262 1628 h152l223 -242l-117 -36z" />
<glyph unicode="&#xda;" horiz-adv-x="1095" d="M59 262v967h119v-963q0 -10 8 -26q18 -35 60.5 -76t68.5 -53q8 -6 27 -7h254q18 0 27 7q25 12 64.5 53t60.5 76q8 16 8 26v963h118v-967q0 -59 -24 -98q-18 -27 -65.5 -76t-73.5 -65q-51 -33 -105 -33h-274q-55 0 -107 33q-27 16 -74 65t-65 76q-27 41 -27 98zM279 1386 l223 242h151l-258 -278z" />
<glyph unicode="&#xdb;" horiz-adv-x="1095" d="M59 262v967h119v-963q0 -10 8 -26q18 -35 60.5 -76t68.5 -53q8 -6 27 -7h254q18 0 27 7q25 12 64.5 53t60.5 76q8 16 8 26v963h118v-967q0 -59 -24 -98q-18 -27 -65.5 -76t-73.5 -65q-51 -33 -105 -33h-274q-55 0 -107 33q-27 16 -74 65t-65 76q-27 41 -27 98zM154 1386 l233 242h143l234 -242l-4 -2h-144l-124 136h-64l-125 -136h-145z" />
<glyph unicode="&#xdc;" horiz-adv-x="1095" d="M59 262v967h119v-963q0 -10 8 -26q18 -35 60.5 -76t68.5 -53q8 -6 27 -7h254q18 0 27 7q25 12 64.5 53t60.5 76q8 16 8 26v963h118v-967q0 -59 -24 -98q-18 -27 -65.5 -76t-73.5 -65q-51 -33 -105 -33h-274q-55 0 -107 33q-27 16 -74 65t-65 76q-27 41 -27 98zM256 1378 v131h127v-131h-127zM555 1378v131h127v-131h-127z" />
<glyph unicode="&#xdd;" horiz-adv-x="923" />
<glyph unicode="&#xdf;" horiz-adv-x="1095" d="M39 0l16 145v811q0 66 27 103q20 31 66.5 80t72.5 65q55 33 109 33h96q76 0 125 -37q43 -31 92 -98q31 -45 31 -111v-53q0 -78 -33 -121q-16 -23 -55 -53q-55 -41 -74 -78q-6 -12 -6 -35v-55q0 -31 22.5 -51.5t55.5 -24.5l30 -4l99 -6q76 -4 127 -56.5t51 -125.5v-101 q0 -63 -31 -108q-45 -63 -84 -90q-51 -39 -125 -39h-245q-74 0 -125 39l84 75q14 -8 36 -8h248q20 0 35 8q59 35 90 91q6 12 6 36v97q0 31 -22.5 52t-55.5 23l-106 7l-23 2q-76 6 -127 59t-51 127v57q0 61 31 109q6 10 43 42t43 38q35 35 47 57l2 8q0 8 1 25l2 33 q1 16 -1 33.5t-6 25.5q-33 61 -98 98q-10 6 -35 6h-90q-14 0 -27 -6q-27 -14 -72 -60t-63 -81q-6 -12 -6 -31v-841l-14 -111h-113z" />
<glyph unicode="&#xe0;" horiz-adv-x="962" d="M0 233v41q0 61 31 109q37 51 90 96q51 39 125 39h356v125q0 20 -4 33q-35 63 -98 100q-14 8 -37 8h-193q-20 0 -34 -8q-51 -29 -99 -102l-106 35q20 33 30 47q39 57 93 98q49 37 122 37h189q76 0 127 -39q39 -25 92 -96q29 -39 29 -111v-500l14 -145h-111l-12 102 q-37 -39 -78 -69q-59 -43 -100 -43h-180q-74 0 -125 39q-53 45 -90 96q-31 47 -31 108zM111 233q0 -20 6 -32q33 -61 94 -97q14 -8 37 -8h172q16 0 29 6q35 18 85 55.5t68 69.5v185h-354q-23 0 -37 -9q-61 -35 -94 -96q-6 -12 -6 -33v-41zM154 1341h151l223 -241l-116 -37z " />
<glyph unicode="&#xe1;" horiz-adv-x="962" d="M0 233v41q0 61 31 109q37 51 90 96q51 39 125 39h356v125q0 20 -4 33q-35 63 -98 100q-14 8 -37 8h-193q-20 0 -34 -8q-51 -29 -99 -102l-106 35q20 33 30 47q39 57 93 98q49 37 122 37h189q76 0 127 -39q39 -25 92 -96q29 -39 29 -111v-500l14 -145h-111l-12 102 q-37 -39 -78 -69q-59 -43 -100 -43h-180q-74 0 -125 39q-53 45 -90 96q-31 47 -31 108zM111 233q0 -20 6 -32q33 -61 94 -97q14 -8 37 -8h172q16 0 29 6q35 18 85 55.5t68 69.5v185h-354q-23 0 -37 -9q-61 -35 -94 -96q-6 -12 -6 -33v-41zM213 1100l223 241h152l-258 -278z " />
<glyph unicode="&#xe2;" horiz-adv-x="962" d="M0 233v41q0 61 31 109q37 51 90 96q51 39 125 39h356v125q0 20 -4 33q-35 63 -98 100q-14 8 -37 8h-193q-20 0 -34 -8q-51 -29 -99 -102l-106 35q20 33 30 47q39 57 93 98q49 37 122 37h189q76 0 127 -39q39 -25 92 -96q29 -39 29 -111v-500l14 -145h-111l-12 102 q-37 -39 -78 -69q-59 -43 -100 -43h-180q-74 0 -125 39q-53 45 -90 96q-31 47 -31 108zM111 233q0 -20 6 -32q33 -61 94 -97q14 -8 37 -8h172q16 0 29 6q35 18 85 55.5t68 69.5v185h-354q-23 0 -37 -9q-61 -35 -94 -96q-6 -12 -6 -33v-41zM80 1100l233 241h144l233 -241 l-4 -2h-143l-125 135h-64l-125 -135h-145z" />
<glyph unicode="&#xe3;" horiz-adv-x="962" d="M0 233v41q0 61 31 109q37 51 90 96q51 39 125 39h356v125q0 20 -4 33q-35 63 -98 100q-14 8 -37 8h-193q-20 0 -34 -8q-51 -29 -99 -102l-106 35q20 33 30 47q39 57 93 98q49 37 122 37h189q76 0 127 -39q39 -25 92 -96q29 -39 29 -111v-500l14 -145h-111l-12 102 q-37 -39 -78 -69q-59 -43 -100 -43h-180q-74 0 -125 39q-53 45 -90 96q-31 47 -31 108zM111 233q0 -20 6 -32q33 -61 94 -97q14 -8 37 -8h172q16 0 29 6q35 18 85 55.5t68 69.5v185h-354q-23 0 -37 -9q-61 -35 -94 -96q-6 -12 -6 -33v-41zM76 1286l104 25q20 -61 96 -51 l150 36q72 18 137.5 -17.5t85.5 -107.5l-104 -24q-20 61 -96 51l-150 -37q-72 -18 -137.5 17.5t-85.5 107.5z" />
<glyph unicode="&#xe4;" horiz-adv-x="962" d="M0 233v41q0 61 31 109q37 51 90 96q51 39 125 39h356v125q0 20 -4 33q-35 63 -98 100q-14 8 -37 8h-193q-20 0 -34 -8q-51 -29 -99 -102l-106 35q20 33 30 47q39 57 93 98q49 37 122 37h189q76 0 127 -39q39 -25 92 -96q29 -39 29 -111v-500l14 -145h-111l-12 102 q-37 -39 -78 -69q-59 -43 -100 -43h-180q-74 0 -125 39q-53 45 -90 96q-31 47 -31 108zM111 233q0 -20 6 -32q33 -61 94 -97q14 -8 37 -8h172q16 0 29 6q35 18 85 55.5t68 69.5v185h-354q-23 0 -37 -9q-61 -35 -94 -96q-6 -12 -6 -33v-41zM172 1106v131h127v-131h-127z M471 1106v131h127v-131h-127z" />
<glyph unicode="&#xe5;" horiz-adv-x="983" d="M0 233v41q0 61 31 109q37 51 90 96q51 39 125 39h356v125q0 20 -4 33q-35 63 -98 100q-14 8 -37 8h-193q-20 0 -34 -8q-51 -29 -99 -102l-106 35q20 33 30 47q39 57 93 98q49 37 122 37h189q76 0 127 -39q39 -25 92 -96q29 -39 29 -111v-500l14 -145h-111l-12 102 q-37 -39 -78 -69q-59 -43 -100 -43h-180q-74 0 -125 39q-53 45 -90 96q-31 47 -31 108zM111 233q0 -20 6 -32q33 -61 94 -97q14 -8 37 -8h172q16 0 29 6q35 18 85 55.5t68 69.5v185h-354q-23 0 -37 -9q-61 -35 -94 -96q-6 -12 -6 -33v-41zM129 1229v39q0 59 37 110 q37 49 90 86q45 29 96 29h56q51 0 96 -29q53 -37 88 -84q37 -51 37 -112v-39q0 -61 -37 -113q-35 -47 -88 -84q-45 -29 -96 -28h-56q-51 0 -96 28q-57 41 -92 86q-35 48 -35 111zM217 1229q0 -16 8 -33q35 -63 92 -96q12 -6 31 -6h64q18 0 30 6q57 33 93 96q6 12 6 33v37 q0 23 -6 34q-35 63 -93 97q-8 4 -32 4h-62q-23 0 -31 -4q-57 -33 -92 -97q-8 -16 -8 -34v-37z" />
<glyph unicode="&#xe6;" horiz-adv-x="1529" d="M0 233q0 -61 31 -108q37 -51 90 -96q51 -39 125 -39h219q76 0 127 39q20 14 65 67q43 -51 68 -67q51 -39 127 -39h209q74 0 125 39q43 31 92 98q18 25 29 45l-109 37l-2 -4q-37 -68 -94 -101q-14 -8 -37 -8h-213q-20 0 -35 8q-63 37 -98 101q-6 8 -6 22v174h592v244 q0 66 -29 109q-49 68 -92 98q-51 39 -127 39h-205q-76 0 -127 -39q-31 -25 -66 -66q-41 49 -67 66q-51 39 -127 39h-189q-74 0 -122 -37q-53 -41 -93 -98q-10 -14 -30 -47l106 -35q47 74 99 102q14 8 34 8h193q23 0 37 -8q63 -37 98 -100q4 -8 4 -21v-137h-356 q-74 0 -125 -39q-53 -45 -90 -96q-31 -47 -31 -109v-41zM111 233v41q0 20 6 33q33 61 94 96q14 8 37 9h354v-191q0 -8 -4 -16q-35 -63 -98 -101q-14 -8 -37 -8h-215q-23 0 -37 8q-61 35 -94 97q-6 12 -6 32zM713 508v143q0 16 6 25q35 63 98 100q14 8 35 8h203q23 0 37 -8 q63 -37 98 -100q4 -8 4 -35v-133h-481z" />
<glyph unicode="&#xe7;" horiz-adv-x="944" d="M41 236v409q0 66 29 109q49 68 92 98q51 39 127 39h203q74 0 124 -39q55 -41 121 -145l-106 -35q-12 27 -43 58.5t-56 45.5q-14 8 -36 8h-205q-23 0 -37 -8q-61 -35 -96 -100q-6 -12 -6 -35v-401q0 -23 6 -35q14 -27 41.5 -56.5t52.5 -44.5q14 -8 37 -8h213q23 0 37 8 q25 14 55.5 46t40.5 55l2 4l106 -37q-51 -94 -120 -143q-51 -39 -125 -39h-209q-76 0 -127 39q-43 31 -92 98q-29 43 -29 109zM258 -360l121 266l108 -39l-104 -227h-125z" />
<glyph unicode="&#xe8;" horiz-adv-x="968" d="M41 236v409q0 63 31 109q49 68 92 98q51 39 127 39h205q76 0 127 -39q43 -31 92 -98q29 -43 28 -109v-254h-591v-151q0 -23 6 -35q35 -66 96 -101q14 -8 35 -8h215q23 0 37 8q57 33 94 101l2 4l108 -37q-10 -20 -28 -45q-49 -68 -92 -98q-51 -39 -125 -39h-209 q-76 0 -127 39q-43 31 -92 98q-31 46 -31 109zM152 498h481v143q0 27 -4 35q-35 63 -99 100q-14 8 -36 8h-203q-20 0 -35 -8q-63 -37 -98 -100q-6 -12 -6 -35v-143zM154 1341h151l223 -241l-116 -37z" />
<glyph unicode="&#xe9;" horiz-adv-x="968" d="M41 236v409q0 63 31 109q49 68 92 98q51 39 127 39h205q76 0 127 -39q43 -31 92 -98q29 -43 28 -109v-254h-591v-151q0 -23 6 -35q35 -66 96 -101q14 -8 35 -8h215q23 0 37 8q57 33 94 101l2 4l108 -37q-10 -20 -28 -45q-49 -68 -92 -98q-51 -39 -125 -39h-209 q-76 0 -127 39q-43 31 -92 98q-31 46 -31 109zM152 498h481v143q0 27 -4 35q-35 63 -99 100q-14 8 -36 8h-203q-20 0 -35 -8q-63 -37 -98 -100q-6 -12 -6 -35v-143zM213 1100l223 241h152l-258 -278z" />
<glyph unicode="&#xea;" horiz-adv-x="968" d="M41 236v409q0 63 31 109q49 68 92 98q51 39 127 39h205q76 0 127 -39q43 -31 92 -98q29 -43 28 -109v-254h-591v-151q0 -23 6 -35q35 -66 96 -101q14 -8 35 -8h215q23 0 37 8q57 33 94 101l2 4l108 -37q-10 -20 -28 -45q-49 -68 -92 -98q-51 -39 -125 -39h-209 q-76 0 -127 39q-43 31 -92 98q-31 46 -31 109zM152 498h481v143q0 27 -4 35q-35 63 -99 100q-14 8 -36 8h-203q-20 0 -35 -8q-63 -37 -98 -100q-6 -12 -6 -35v-143zM84 1100l233 241h144l233 -241l-4 -2h-143l-125 135h-64l-125 -135h-145z" />
<glyph unicode="&#xeb;" horiz-adv-x="968" d="M41 236v409q0 63 31 109q49 68 92 98q51 39 127 39h205q76 0 127 -39q43 -31 92 -98q29 -43 28 -109v-254h-591v-151q0 -23 6 -35q35 -66 96 -101q14 -8 35 -8h215q23 0 37 8q57 33 94 101l2 4l108 -37q-10 -20 -28 -45q-49 -68 -92 -98q-51 -39 -125 -39h-209 q-76 0 -127 39q-43 31 -92 98q-31 46 -31 109zM152 498h481v143q0 27 -4 35q-35 63 -99 100q-14 8 -36 8h-203q-20 0 -35 -8q-63 -37 -98 -100q-6 -12 -6 -35v-143zM172 1106v131h127v-131h-127zM471 1106v131h127v-131h-127z" />
<glyph unicode="&#xec;" horiz-adv-x="421" d="M170 0h-111v881h111v-881zM-165 1341h151l223 -241l-116 -37z" />
<glyph unicode="&#xed;" horiz-adv-x="421" d="M170 0h-111v881h111v-881zM25 1100l223 241h152l-258 -278z" />
<glyph unicode="&#xee;" horiz-adv-x="421" d="M170 0h-111v881h111v-881zM-188 1100l233 241h144l233 -241l-4 -2h-143l-125 135h-64l-125 -135h-145z" />
<glyph unicode="&#xef;" horiz-adv-x="421" d="M170 0h-111v881h111v-881zM-96 1106v131h127v-131h-127zM203 1106v131h127v-131h-127z" />
<glyph unicode="&#xf0;" horiz-adv-x="950" />
<glyph unicode="&#xf1;" horiz-adv-x="985" d="M41 881h111l12 -103q41 45 76 70q59 43 102 43h154q76 0 127 -39q43 -31 92 -98q29 -43 28 -109v-645h-110v641q0 27 -4 35q-35 63 -99 100q-14 8 -36 8h-146q-16 0 -29 -6q-115 -61 -153 -123v-655h-111v735zM123 1286l104 25q20 -61 96 -51l150 36q72 18 137.5 -17.5 t85.5 -107.5l-104 -24q-20 61 -96 51l-150 -37q-72 -18 -137.5 17.5t-85.5 107.5z" />
<glyph unicode="&#xf2;" horiz-adv-x="956" d="M31 236v409q0 66 28 109q49 68 93 98q51 39 127 39h204q76 0 127 -39q43 -31 92 -98q29 -43 29 -109v-409q0 -66 -29 -109q-49 -68 -92 -98q-51 -39 -127 -39h-204q-76 0 -127 39q-43 31 -93 98q-28 43 -28 109zM141 240q0 -23 6 -35q35 -66 97 -101q14 -8 37 -8h200 q23 0 37 8q63 37 98 101q4 8 5 35v401q0 27 -5 35q-35 63 -98 100q-14 8 -37 8h-200q-23 0 -37 -8q-61 -35 -97 -100q-6 -12 -6 -35v-401zM154 1341h151l223 -241l-116 -37z" />
<glyph unicode="&#xf3;" horiz-adv-x="956" d="M31 236v409q0 66 28 109q49 68 93 98q51 39 127 39h204q76 0 127 -39q43 -31 92 -98q29 -43 29 -109v-409q0 -66 -29 -109q-49 -68 -92 -98q-51 -39 -127 -39h-204q-76 0 -127 39q-43 31 -93 98q-28 43 -28 109zM141 240q0 -23 6 -35q35 -66 97 -101q14 -8 37 -8h200 q23 0 37 8q63 37 98 101q4 8 5 35v401q0 27 -5 35q-35 63 -98 100q-14 8 -37 8h-200q-23 0 -37 -8q-61 -35 -97 -100q-6 -12 -6 -35v-401zM213 1100l223 241h152l-258 -278z" />
<glyph unicode="&#xf4;" horiz-adv-x="956" d="M31 236v409q0 66 28 109q49 68 93 98q51 39 127 39h204q76 0 127 -39q43 -31 92 -98q29 -43 29 -109v-409q0 -66 -29 -109q-49 -68 -92 -98q-51 -39 -127 -39h-204q-76 0 -127 39q-43 31 -93 98q-28 43 -28 109zM82 1100l233 241h144l233 -241l-4 -2h-143l-125 135h-64 l-125 -135h-145zM141 240q0 -23 6 -35q35 -66 97 -101q14 -8 37 -8h200q23 0 37 8q63 37 98 101q4 8 5 35v401q0 27 -5 35q-35 63 -98 100q-14 8 -37 8h-200q-23 0 -37 -8q-61 -35 -97 -100q-6 -12 -6 -35v-401z" />
<glyph unicode="&#xf5;" horiz-adv-x="956" d="M31 236v409q0 66 28 109q49 68 93 98q51 39 127 39h204q76 0 127 -39q43 -31 92 -98q29 -43 29 -109v-409q0 -66 -29 -109q-49 -68 -92 -98q-51 -39 -127 -39h-204q-76 0 -127 39q-43 31 -93 98q-28 43 -28 109zM76 1286l104 25q20 -61 96 -51l150 36q72 18 137.5 -17.5 t85.5 -107.5l-104 -24q-20 61 -96 51l-150 -37q-72 -18 -137.5 17.5t-85.5 107.5zM141 240q0 -23 6 -35q35 -66 97 -101q14 -8 37 -8h200q23 0 37 8q63 37 98 101q4 8 5 35v401q0 27 -5 35q-35 63 -98 100q-14 8 -37 8h-200q-23 0 -37 -8q-61 -35 -97 -100q-6 -12 -6 -35 v-401z" />
<glyph unicode="&#xf6;" horiz-adv-x="956" d="M31 236v409q0 66 28 109q49 68 93 98q51 39 127 39h204q76 0 127 -39q43 -31 92 -98q29 -43 29 -109v-409q0 -66 -29 -109q-49 -68 -92 -98q-51 -39 -127 -39h-204q-76 0 -127 39q-43 31 -93 98q-28 43 -28 109zM141 240q0 -23 6 -35q35 -66 97 -101q14 -8 37 -8h200 q23 0 37 8q63 37 98 101q4 8 5 35v401q0 27 -5 35q-35 63 -98 100q-14 8 -37 8h-200q-23 0 -37 -8q-61 -35 -97 -100q-6 -12 -6 -35v-401zM172 1106v131h127v-131h-127zM471 1106v131h127v-131h-127z" />
<glyph unicode="&#xf7;" horiz-adv-x="884" />
<glyph unicode="&#xf8;" horiz-adv-x="956" d="M20 236v409q0 66 29 109q49 68 92 98q51 39 127 39h226q27 0 53 -6l22 45h123l-49 -96q43 -39 70 -80q29 -43 28 -109v-409q0 -66 -28 -109q-49 -68 -92 -98q-51 -39 -127 -39h-226q-37 0 -63 8l-29 -57h-125l60 114q-45 45 -62 72q-29 43 -29 109zM129 240q0 -23 6 -35 q20 -33 31 -43l328 622h-2h-222q-23 0 -37 -8q-63 -37 -98 -100q-6 -12 -6 -35v-401zM258 96h12h222q23 0 36 8q63 37 99 101q4 8 4 35v401q0 27 -4 35q-12 25 -39 51z" />
<glyph unicode="&#xf9;" horiz-adv-x="970" d="M33 236v645h110v-641q0 -27 4 -35q35 -63 99 -101q14 -8 37 -8h145q16 0 29 6q115 61 153 123v656h111v-736l14 -145h-110l-13 102q-41 -45 -75 -69q-59 -43 -103 -43h-153q-76 0 -127 39q-43 31 -93 98q-28 43 -28 109zM154 1341h151l223 -241l-116 -37z" />
<glyph unicode="&#xfa;" horiz-adv-x="970" d="M33 236v645h110v-641q0 -27 4 -35q35 -63 99 -101q14 -8 37 -8h145q16 0 29 6q115 61 153 123v656h111v-736l14 -145h-110l-13 102q-41 -45 -75 -69q-59 -43 -103 -43h-153q-76 0 -127 39q-43 31 -93 98q-28 43 -28 109zM213 1100l223 241h152l-258 -278z" />
<glyph unicode="&#xfb;" horiz-adv-x="970" d="M33 236v645h110v-641q0 -27 4 -35q35 -63 99 -101q14 -8 37 -8h145q16 0 29 6q115 61 153 123v656h111v-736l14 -145h-110l-13 102q-41 -45 -75 -69q-59 -43 -103 -43h-153q-76 0 -127 39q-43 31 -93 98q-28 43 -28 109zM68 1100l233 241h144l233 -241l-4 -2h-143 l-125 135h-64l-125 -135h-145z" />
<glyph unicode="&#xfc;" horiz-adv-x="970" d="M33 236v645h110v-641q0 -27 4 -35q35 -63 99 -101q14 -8 37 -8h145q16 0 29 6q115 61 153 123v656h111v-736l14 -145h-110l-13 102q-41 -45 -75 -69q-59 -43 -103 -43h-153q-76 0 -127 39q-43 31 -93 98q-28 43 -28 109zM178 1106v131h127v-131h-127zM477 1106v131h127 v-131h-127z" />
<glyph unicode="&#xfd;" horiz-adv-x="858" />
<glyph unicode="&#xff;" horiz-adv-x="858" />
<glyph unicode="&#x131;" horiz-adv-x="421" d="M170 0h-111v881h111v-881z" />
<glyph unicode="&#x152;" horiz-adv-x="1306" d="M59 274v678q0 61 25 101q18 27 66.5 77t74.5 66q51 33 105 33h721v-115h-367v-444h367v-115h-367v-440h367v-115h-721q-53 0 -105 33q-27 16 -75 65t-66 76q-25 39 -25 100zM178 276q0 -10 8 -26q18 -35 59.5 -76t67.5 -53q10 -6 27 -6h225v999h-225q-16 0 -27 -6 q-27 -12 -67.5 -53t-59.5 -76q-8 -16 -8 -31v-672z" />
<glyph unicode="&#x153;" horiz-adv-x="1548" d="M31 236v409q0 66 28 109q49 68 93 98q51 39 127 39h204q76 0 127 -39q31 -25 66 -66q31 37 67 66q51 39 127 39h205q76 0 127 -39q43 -31 92 -98q29 -43 29 -109v-244h-592v-165q0 -23 6 -31q35 -63 99 -101q14 -8 34 -8h213q23 0 37 8q57 33 94 101l3 4l108 -37 q-10 -20 -29 -45q-49 -68 -92 -98q-51 -39 -125 -39h-209q-76 0 -127 39q-29 20 -67 65q-41 -49 -66 -65q-51 -39 -127 -39h-204q-76 0 -127 39q-43 31 -93 98q-28 43 -28 109zM141 240q0 -23 6 -35q35 -66 97 -101q14 -8 37 -8h200q23 0 37 8q63 37 98 101q4 6 5 31v405 q0 27 -5 35q-35 63 -98 100q-14 8 -37 8h-200q-23 0 -37 -8q-61 -35 -97 -100q-6 -12 -6 -35v-401zM731 508h481v133q0 27 -4 35q-35 63 -98 100q-14 8 -37 8h-203q-20 0 -34 -8q-63 -37 -99 -100q-6 -12 -6 -35v-133z" />
<glyph unicode="&#x178;" horiz-adv-x="923" />
<glyph unicode="&#x2c6;" horiz-adv-x="868" d="M84 1100l233 241h144l233 -241l-4 -2h-143l-125 135h-64l-125 -135h-145z" />
<glyph unicode="&#x2dc;" horiz-adv-x="946" d="M76 1286l104 25q20 -61 96 -51l150 36q72 18 137.5 -17.5t85.5 -107.5l-104 -24q-20 61 -96 51l-150 -37q-72 -18 -137.5 17.5t-85.5 107.5z" />
<glyph unicode="&#x2000;" horiz-adv-x="911" />
<glyph unicode="&#x2001;" horiz-adv-x="1822" />
<glyph unicode="&#x2002;" horiz-adv-x="911" />
<glyph unicode="&#x2003;" horiz-adv-x="1822" />
<glyph unicode="&#x2004;" horiz-adv-x="606" />
<glyph unicode="&#x2005;" horiz-adv-x="454" />
<glyph unicode="&#x2006;" horiz-adv-x="303" />
<glyph unicode="&#x2007;" horiz-adv-x="303" />
<glyph unicode="&#x2008;" horiz-adv-x="227" />
<glyph unicode="&#x2009;" horiz-adv-x="364" />
<glyph unicode="&#x200a;" horiz-adv-x="100" />
<glyph unicode="&#x2010;" horiz-adv-x="739" d="M41 455v106h469v-106h-469z" />
<glyph unicode="&#x2011;" horiz-adv-x="739" d="M41 455v106h469v-106h-469z" />
<glyph unicode="&#x2013;" horiz-adv-x="931" d="M41 455v106h666v-106h-666z" />
<glyph unicode="&#x2014;" horiz-adv-x="1120" d="M41 455v106h854v-106h-854z" />
<glyph unicode="&#x2018;" horiz-adv-x="464" d="M96 948v283l13 112h108l-14 -139v-256h-107z" />
<glyph unicode="&#x2019;" horiz-adv-x="464" d="M109 946l14 139v256h106v-282l-12 -113h-108z" />
<glyph unicode="&#x201a;" horiz-adv-x="464" d="M109 946l14 139v256h106v-282l-12 -113h-108z" />
<glyph unicode="&#x201c;" horiz-adv-x="759" d="M96 934v283l13 112h108l-14 -139v-256h-107zM391 934v283l12 112h109l-14 -139v-256h-107z" />
<glyph unicode="&#x201d;" horiz-adv-x="759" d="M109 946l14 139v256h106v-282l-12 -113h-108zM403 946l15 139v256h106v-282l-12 -113h-109z" />
<glyph unicode="&#x201e;" horiz-adv-x="759" d="M109 946l14 139v256h106v-282l-12 -113h-108zM403 946l15 139v256h106v-282l-12 -113h-109z" />
<glyph unicode="&#x2022;" horiz-adv-x="886" d="M102 496v39q0 59 37 110q37 49 90 86q45 29 97 29h55q51 0 96 -29q53 -37 88 -84q37 -51 37 -112v-39q0 -61 -37 -113q-35 -47 -88 -84q-45 -29 -96 -29h-55q-51 0 -97 29q-57 41 -92 86q-35 48 -35 111z" />
<glyph unicode="&#x2026;" horiz-adv-x="1251" d="M156 0v160h159v-160h-159zM477 0v160h160v-160h-160zM797 0v160h159v-160h-159z" />
<glyph unicode="&#x202f;" horiz-adv-x="364" />
<glyph unicode="&#x2039;" horiz-adv-x="819" d="M98 506v43l275 297l121 -37l-248 -258v-45l248 -260l-121 -35z" />
<glyph unicode="&#x203a;" horiz-adv-x="819" d="M102 246l248 260v45l-248 258l121 37l275 -297v-43l-275 -295z" />
<glyph unicode="&#x205f;" horiz-adv-x="454" />
<glyph unicode="&#x20ac;" horiz-adv-x="1193" d="M41 453v106h88v119h-88v106h88v179q0 59 25 98q18 29 65 78t74 65q51 33 104 33h293q53 0 105 -33q61 -39 129 -129q23 -33 43 -80l-115 -34q-18 41 -62.5 89t-76.5 66q-8 6 -29 6h-276q-18 0 -27 -6q-27 -12 -69 -53t-60 -76q-4 -8 -4 -31v-172h483v-106h-483v-119h483 v-106h-483v-187q0 -18 4 -26q18 -35 60 -76t69 -53q8 -6 27 -7h276q20 0 29 7q33 16 75.5 64t63.5 89l115 -33q-18 -45 -45 -81q-66 -88 -127 -127q-51 -33 -105 -33h-291q-55 0 -106 33q-27 16 -74 65t-65 76q-25 39 -25 98v191h-88z" />
<glyph unicode="&#x2122;" horiz-adv-x="1257" d="M61 1139v90h396v-90h-146v-492h-92v492h-158zM530 647v582h136l112 -232l123 232h137v-582h-90v467l-137 -252h-68l-122 252v-467h-91z" />
</font>
</defs>
</svg>
